<svg width="24" height="24" viewBox="0 0 24 24" fill="none" xmlns="http://www.w3.org/2000/svg">
<path d="M7.76602 19.4151V3.88301C7.76602 1.73848 6.02754 0 3.88301 0C1.73848 0 0 1.73848 0 3.88301V19.4151C0 21.5596 1.73848 23.2981 3.88301 23.2981C6.02754 23.2981 7.76602 21.5596 7.76602 19.4151Z" fill="#112035"/>
<path fill-rule="evenodd" clip-rule="evenodd" d="M19.4154 0C21.5599 0 23.2984 1.73848 23.2984 3.88301C23.2984 6.02754 21.5599 7.76602 19.4154 7.76602H11.6494C9.50484 7.76602 7.76636 6.02754 7.76636 3.88301C7.76636 1.73848 9.50484 0 11.6494 0H19.4154Z" fill="#FFE8EE"/>
<path fill-rule="evenodd" clip-rule="evenodd" d="M11.6494 7.76562C13.7939 7.76562 15.5324 9.50411 15.5324 11.6486C15.5324 13.7932 13.7939 15.5316 11.6494 15.5316C9.50484 15.5316 7.76636 13.7932 7.76636 11.6486C7.76636 9.50411 9.50484 7.76562 11.6494 7.76562Z" fill="#FF4E75"/>
</svg>
